<svg xmlns="http://www.w3.org/2000/svg" version="1.1" xmlns:xlink="http://www.w3.org/1999/xlink" xmlns:svgjs="http://svgjs.dev/svgjs" width="2000" height="474" viewBox="0 0 2000 474"><g transform="matrix(1,0,0,1,-1.2112696095522324,-0.5631059978263124)"><svg viewBox="0 0 396 94" data-background-color="#162836" preserveAspectRatio="xMidYMid meet" height="474" width="2000" xmlns="http://www.w3.org/2000/svg" xmlns:xlink="http://www.w3.org/1999/xlink"><g id="tight-bounds" transform="matrix(1,0,0,1,0.24008861730862918,0.11181577525570674)"><svg viewBox="0 0 395.52 93.77644414657402" height="93.77644414657402" width="395.52"><g><svg viewBox="0 0 395.52 93.77644414657402" height="93.77644414657402" width="395.52"><g><svg viewBox="0 0 395.52 93.77644414657402" height="93.77644414657402" width="395.52"><g id="textblocktransform"><svg viewBox="0 0 395.52 93.77644414657402" height="93.77644414657402" width="395.52" id="textblock"><g><svg viewBox="0 0 395.52 93.77644414657402" height="93.77644414657402" width="395.52"><path d="M394.594 20.113C392.735 10.379 387.435 7.673 387.435 7.673 371.165-2.353 350.86-0.192 332.619 1.249 300.414 1.307 268.339 3.449 236.208 4.597 168.767 4.773 100.749 1.891 33.643 8.997 27.339 11.177-6.54 9.425 1.121 21.359 3.129 26.324 10.456 31.833 10.232 36.388 11.236 37.187 12.631 35.357 13.226 36.505 15.309 39.601 18.711 38.141 21.501 39.971 17.614 44.857 20.403 48.926 23.062 53.189 18.377 54.299 12.371 53.773 9.675 57.453 9.396 60.12 7.89 59.614 6.235 59.497 5.026 59.419 2.59 59.711 2.999 60.548 4.394 63.41-1.594 65.065 2.162 67.868-0.422 70.905 3.948 73.533 3.353 76.823 3.278 77.485 3.687 78.05 4.338 78.206 7.22 79.043 3.018 80.678 3.464 82.45 33.029 94.559 65.104 86.187 95.394 91.755 103.259 87.862 97.346 93.137 100.489 92.32 102.943 91.366 104.728 95.318 107.499 93.079 107.927 92.437 107.276 90.918 108.8 91.21 109.6 91.366 110.307 91.327 110.418 90.431 110.586 89.088 109.117 89.925 108.726 89.224 112.947 85.681 111.906 94.111 115.866 93.76 115.68 92.729 114.528 91.249 116.889 91.444 119.232 89.964 119.306 88.738 121.389 92.067 121.463 92.787 121.835 93.293 122.43 93.644 128.938 90.023 135.409 94.928 142.233 93.293 146.417 91.502 150.433 94.267 154.672 93.585 156.16 93.04 157.666 92.067 159.098 93.702 176.632 94.052 195.319 92.592 211.943 93.76 256.364 91.58 303.836 94.656 350.674 91.775 361.719 90.665 373.192 89.088 383.958 87.823 383.958 87.823 392.679 84.357 392.679 68.783S394.538 55.156 394.817 42.754C395.096 30.353 396.398 29.847 394.538 20.113Z" opacity="1" fill="#cf7650" data-fill-palette-color="tertiary"></path><g transform="matrix(1,0,0,1,55.76832,26.230666666666668)"><svg width="283.98335999999995" viewBox="2.2 -34.8 244.68 35.6" height="41.31511081324069" data-palette-color="#162836"><path d="M6.6 0.8L6.6 0.8Q4.2 0.8 3.23-0.6 2.25-2 2.6-5L2.6-5 4.55-20.25 2.95-20.25Q2.2-20.25 2.2-21.05L2.2-21.05Q2.2-21.55 2.88-22.5 3.55-23.45 4.6-24.6 5.65-25.75 6.78-26.8 7.9-27.85 8.85-28.53 9.8-29.2 10.3-29.2L10.3-29.2Q10.85-29.2 11.05-28.78 11.25-28.35 11.15-27.7L11.15-27.7 10.7-23.75 16.3-23.75Q17.05-23.75 17.18-23.5 17.3-23.25 17.1-22.7L17.1-22.7Q16.5-21 15.98-20.63 15.45-20.25 14.05-20.25L14.05-20.25 10.05-20.25 8.8-9.55Q8.7-8.6 8.63-7.75 8.55-6.9 8.55-6.2L8.55-6.2Q8.55-5.05 9.1-4.58 9.65-4.1 10.9-4.1L10.9-4.1Q12.1-4.1 12.98-4.6 13.85-5.1 14.2-5.1L14.2-5.1Q14.6-5.1 14.6-4.6L14.6-4.6Q14.6-4.1 14.08-3.2 13.55-2.3 12.53-1.38 11.5-0.45 10 0.18 8.5 0.8 6.6 0.8ZM22.45 0.8L22.45 0.8Q19.65 0.8 18.45-1.48 17.25-3.75 17.25-7.85L17.25-7.85Q17.25-11.5 18.32-14.55 19.4-17.6 21.25-19.83 23.1-22.05 25.55-23.28 28-24.5 30.75-24.5L30.75-24.5Q32.9-24.5 34.67-23.93 36.45-23.35 37.7-22.75L37.7-22.75 36.25-17.5Q34.9-18.4 33.22-19.15 31.55-19.9 30.12-20.33 28.7-20.75 28-20.75L28-20.75Q26.6-20.75 25.42-19.38 24.25-18 23.57-15.58 22.9-13.15 22.9-10L22.9-10Q22.9-7.1 23.32-5.6 23.75-4.1 24.7-4.1L24.7-4.1Q25.35-4.1 26.9-5.58 28.45-7.05 30.65-10.5 32.85-13.95 35.3-19.85L35.3-19.85 36.7-15.4Q34-9.4 31.55-5.85 29.1-2.3 26.85-0.75 24.6 0.8 22.45 0.8ZM37.9 0.5L34.4 0.5Q33.4 0.5 33.2-0.48 33-1.45 33-2.55L33-2.55Q33-3.4 33.22-4.65 33.45-5.9 33.8-7.35 34.15-8.8 34.55-10.2L34.55-10.2 35.65-13.95 34.2-15.25 35.4-22.8Q37-23.05 38.22-23.45 39.45-23.85 40.27-24.15 41.1-24.45 41.45-24.45L41.45-24.45Q42-24.45 42-23.85L42-23.85Q42-23.6 41.37-21.73 40.75-19.85 40.02-16.95 39.3-14.05 38.95-10.65L38.95-10.65 37.9 0.5ZM51.05 0.8L51.05 0.8Q47.25 0.8 45.07-0.38 42.9-1.55 42.9-3.55L42.9-3.55Q42.9-4.45 43.17-5.23 43.45-6 44-6L44-6Q44.2-6 44.45-5.9 44.7-5.8 45.4-5.35L45.4-5.35Q46.4-4.7 47.62-4.15 48.85-3.6 50.12-3.28 51.4-2.95 52.5-2.95L52.5-2.95Q54.1-2.95 54.82-3.73 55.55-4.5 55.55-5.8L55.55-5.8Q55.55-6.75 54.97-7.38 54.4-8 53.15-8.8L53.15-8.8 50.05-10.8Q48.1-12.05 46.77-13.48 45.45-14.9 45.45-17.2L45.45-17.2Q45.45-20.45 47.95-22.48 50.45-24.5 55-24.5L55-24.5Q58.2-24.5 59.7-23.85 61.2-23.2 61.2-21.6L61.2-21.6Q61.2-20.35 60.82-19.5 60.45-18.65 59.8-18.65L59.8-18.65Q59.6-18.65 59.27-18.75 58.95-18.85 58.7-19L58.7-19Q58.3-19.25 57.45-19.7 56.6-20.15 55.55-20.53 54.5-20.9 53.35-20.9L53.35-20.9Q52.2-20.9 51.47-20.23 50.75-19.55 50.75-18.4L50.75-18.4Q50.75-17.45 51.35-16.8 51.95-16.15 53.35-15.45L53.35-15.45 56.6-13.95Q58.65-13 59.92-11.73 61.2-10.45 61.2-7.95L61.2-7.95Q61.2-5 59.77-3.05 58.35-1.1 56.02-0.15 53.7 0.8 51.05 0.8ZM82.09 0.55L82.09 0.55Q80.99 0.55 79.84-0.5 78.69-1.55 77.59-3.28 76.49-5 75.52-7.1 74.54-9.2 73.84-11.35L73.84-11.35Q73.64-11.95 73.39-12.8 73.14-13.65 73.14-14.45L73.14-14.45Q73.14-15 73.32-15.48 73.49-15.95 73.84-16.5L73.84-16.5Q74.84-18.1 76.27-19.55 77.69-21 79.39-22.13 81.09-23.25 82.89-23.88 84.69-24.5 86.39-24.5L86.39-24.5Q87.74-24.5 88.17-23.85 88.59-23.2 88.59-22.05L88.59-22.05Q88.59-20.95 88.32-20.13 88.04-19.3 87.64-18.85 87.24-18.4 86.89-18.4L86.89-18.4Q86.24-18.4 85.39-18.8 84.54-19.2 83.34-19.2L83.34-19.2Q81.29-19.2 79.57-17.88 77.84-16.55 76.89-14.95L76.89-14.95 77.39-17.1Q79.54-11.35 81.34-8.45 83.14-5.55 84.44-4.2L84.44-4.2Q85.29-3.35 85.94-3.03 86.59-2.7 86.59-2.2L86.59-2.2Q86.59-1.55 85.77-0.93 84.94-0.3 83.89 0.13 82.84 0.55 82.09 0.55ZM70.44 0.7L66.94 0.7Q66.04 0.7 65.54-0.4 65.04-1.5 65.09-2.95L65.09-2.95Q65.14-4.65 65.39-7 65.64-9.35 65.89-11.65L65.89-11.65 67.29-23.45Q67.59-25.7 67.44-27.45 67.29-29.2 67.04-30.55 66.79-31.9 66.79-32.85L66.79-32.85Q66.79-33.4 67.67-33.83 68.54-34.25 69.69-34.52 70.84-34.8 71.64-34.8L71.64-34.8Q72.49-34.8 73.14-33.58 73.79-32.35 73.79-30.75L73.79-30.75Q73.79-30.4 73.69-28.8 73.59-27.2 73.29-25.15L73.29-25.15 71.69-13.65Q71.19-10.05 70.99-6.48 70.79-2.9 70.44 0.7L70.44 0.7ZM136.84 0.5L133.19 0.5Q132.64 0.5 132.39-0.03 132.14-0.55 132.09-1.2 132.04-1.85 132.04-2.25L132.04-2.25Q132.04-2.95 132.14-4.05 132.24-5.15 132.39-6.38 132.54-7.6 132.69-8.5L132.69-8.5 133.54-13.7Q133.69-14.7 133.84-15.58 133.99-16.45 133.99-17.45L133.99-17.45Q133.99-18.2 133.69-18.6 133.39-19 132.89-19L132.89-19Q132.24-19 130.74-17.75 129.24-16.5 127.54-14.2 125.84-11.9 124.44-8.65 123.04-5.4 122.64-1.4L122.64-1.4 121.54-8.75Q123.59-14.55 126.11-18 128.64-21.45 131.14-22.98 133.64-24.5 135.49-24.5L135.49-24.5Q137.04-24.5 137.96-23.95 138.89-23.4 139.34-22.35 139.79-21.3 139.79-19.85L139.79-19.85Q139.79-18.8 139.61-17.63 139.44-16.45 139.24-15.15L139.24-15.15 136.84 0.5ZM103.49 0.7L103.49 0.7Q102.84 0.7 102.51 0.48 102.19 0.25 102.16-0.7 102.14-1.65 102.39-3.75L102.39-3.75 104.74-24.55 108.24-24.55Q109.24-24.55 109.71-23.45 110.19-22.35 110.19-20.95L110.19-20.95Q110.19-20.3 109.81-18.93 109.44-17.55 108.94-16.03 108.44-14.5 108.04-13.35L108.04-13.35 106.74-9.25 108.59-9.55 107.74-1.4Q107.69-0.9 107.16-0.5 106.64-0.1 105.94 0.18 105.24 0.45 104.56 0.58 103.89 0.7 103.49 0.7ZM118.24 0.7L118.24 0.7Q117.34 0.7 117.14 0.35 116.94 0 116.94-0.85L116.94-0.85Q116.94-1.6 117.11-3.3 117.29-5 117.89-8.5L117.89-8.5 118.79-13.65Q118.99-14.65 119.11-15.63 119.24-16.6 119.24-17.6L119.24-17.6Q119.24-18.3 118.99-18.65 118.74-19 118.19-19L118.19-19Q117.49-19 115.94-17.75 114.39-16.5 112.66-14.2 110.94-11.9 109.54-8.65 108.14-5.4 107.74-1.4L107.74-1.4 106.54-8.75Q108.04-13.1 109.94-16.1 111.84-19.1 113.79-20.95 115.74-22.8 117.51-23.65 119.29-24.5 120.59-24.5L120.59-24.5Q122.24-24.5 123.16-23.9 124.09-23.3 124.46-22.33 124.84-21.35 124.84-20.3L124.84-20.3Q124.84-19.05 124.44-17.7 124.04-16.35 123.36-14.43 122.69-12.5 121.89-9.5L121.89-9.5 123.54-10.1 122.64-1.4Q122.59-0.9 122.09-0.5 121.59-0.1 120.86 0.15 120.14 0.4 119.41 0.55 118.69 0.7 118.24 0.7ZM148.24 0.8L148.24 0.8Q145.44 0.8 144.24-1.48 143.04-3.75 143.04-7.85L143.04-7.85Q143.04-11.5 144.11-14.55 145.19-17.6 147.04-19.83 148.89-22.05 151.34-23.28 153.79-24.5 156.54-24.5L156.54-24.5Q158.69-24.5 160.46-23.93 162.24-23.35 163.49-22.75L163.49-22.75 162.04-17.5Q160.69-18.4 159.01-19.15 157.34-19.9 155.91-20.33 154.49-20.75 153.79-20.75L153.79-20.75Q152.39-20.75 151.21-19.38 150.04-18 149.36-15.58 148.69-13.15 148.69-10L148.69-10Q148.69-7.1 149.11-5.6 149.54-4.1 150.49-4.1L150.49-4.1Q151.14-4.1 152.69-5.58 154.24-7.05 156.44-10.5 158.64-13.95 161.09-19.85L161.09-19.85 162.49-15.4Q159.79-9.4 157.34-5.85 154.89-2.3 152.64-0.75 150.39 0.8 148.24 0.8ZM163.69 0.5L160.19 0.5Q159.19 0.5 158.99-0.48 158.79-1.45 158.79-2.55L158.79-2.55Q158.79-3.4 159.01-4.65 159.24-5.9 159.59-7.35 159.94-8.8 160.34-10.2L160.34-10.2 161.44-13.95 159.99-15.25 161.19-22.8Q162.79-23.05 164.01-23.45 165.24-23.85 166.06-24.15 166.89-24.45 167.24-24.45L167.24-24.45Q167.79-24.45 167.79-23.85L167.79-23.85Q167.79-23.6 167.16-21.73 166.54-19.85 165.81-16.95 165.09-14.05 164.74-10.65L164.74-10.65 163.69 0.5ZM176.83 0.8L176.83 0.8Q173.03 0.8 170.86-0.38 168.68-1.55 168.68-3.55L168.68-3.55Q168.68-4.45 168.96-5.23 169.23-6 169.78-6L169.78-6Q169.98-6 170.23-5.9 170.48-5.8 171.18-5.35L171.18-5.35Q172.18-4.7 173.41-4.15 174.63-3.6 175.91-3.28 177.18-2.95 178.28-2.95L178.28-2.95Q179.88-2.95 180.61-3.73 181.33-4.5 181.33-5.8L181.33-5.8Q181.33-6.75 180.76-7.38 180.18-8 178.93-8.8L178.93-8.8 175.83-10.8Q173.88-12.05 172.56-13.48 171.23-14.9 171.23-17.2L171.23-17.2Q171.23-20.45 173.73-22.48 176.23-24.5 180.78-24.5L180.78-24.5Q183.98-24.5 185.48-23.85 186.98-23.2 186.98-21.6L186.98-21.6Q186.98-20.35 186.61-19.5 186.23-18.65 185.58-18.65L185.58-18.65Q185.38-18.65 185.06-18.75 184.73-18.85 184.48-19L184.48-19Q184.08-19.25 183.23-19.7 182.38-20.15 181.33-20.53 180.28-20.9 179.13-20.9L179.13-20.9Q177.98-20.9 177.26-20.23 176.53-19.55 176.53-18.4L176.53-18.4Q176.53-17.45 177.13-16.8 177.73-16.15 179.13-15.45L179.13-15.45 182.38-13.95Q184.43-13 185.71-11.73 186.98-10.45 186.98-7.95L186.98-7.95Q186.98-5 185.56-3.05 184.13-1.1 181.81-0.15 179.48 0.8 176.83 0.8ZM195.28 0.8L195.28 0.8Q192.88 0.8 191.91-0.6 190.93-2 191.28-5L191.28-5 193.23-20.25 191.63-20.25Q190.88-20.25 190.88-21.05L190.88-21.05Q190.88-21.55 191.56-22.5 192.23-23.45 193.28-24.6 194.33-25.75 195.46-26.8 196.58-27.85 197.53-28.53 198.48-29.2 198.98-29.2L198.98-29.2Q199.53-29.2 199.73-28.78 199.93-28.35 199.83-27.7L199.83-27.7 199.38-23.75 204.98-23.75Q205.73-23.75 205.86-23.5 205.98-23.25 205.78-22.7L205.78-22.7Q205.18-21 204.66-20.63 204.13-20.25 202.73-20.25L202.73-20.25 198.73-20.25 197.48-9.55Q197.38-8.6 197.31-7.75 197.23-6.9 197.23-6.2L197.23-6.2Q197.23-5.05 197.78-4.58 198.33-4.1 199.58-4.1L199.58-4.1Q200.78-4.1 201.66-4.6 202.53-5.1 202.88-5.1L202.88-5.1Q203.28-5.1 203.28-4.6L203.28-4.6Q203.28-4.1 202.76-3.2 202.23-2.3 201.21-1.38 200.18-0.45 198.68 0.18 197.18 0.8 195.28 0.8ZM213.78 0.8L213.78 0.8Q209.93 0.8 207.83-1.63 205.73-4.05 205.73-8.3L205.73-8.3Q205.73-11.85 206.73-14.8 207.73-17.75 209.53-19.95 211.33-22.15 213.75-23.35 216.18-24.55 219.03-24.55L219.03-24.55Q222.43-24.55 224.23-23.1 226.03-21.65 226.03-18.95L226.03-18.95Q226.03-16.2 224.2-14.15 222.38-12.1 218.95-10.65 215.53-9.2 210.78-8.2L210.78-8.2 210.13-11.2Q212.88-11.55 215.18-12.4 217.48-13.25 218.88-14.68 220.28-16.1 220.28-18.05L220.28-18.05Q220.28-19.4 219.75-20.1 219.23-20.8 217.88-20.8L217.88-20.8Q215.83-20.8 214.4-19.3 212.98-17.8 212.25-15.4 211.53-13 211.53-10.3L211.53-10.3Q211.53-6.65 212.65-5.43 213.78-4.2 215.98-4.2L215.98-4.2Q218.28-4.2 220-4.93 221.73-5.65 222.98-6.45L222.98-6.45Q223.38-6.7 223.68-6.85 223.98-7 224.18-7L224.18-7Q224.43-7 224.58-6.8 224.73-6.6 224.73-6.35L224.73-6.35Q224.73-5.45 223.93-4.25 223.13-3.05 221.65-1.9 220.18-0.75 218.18 0.03 216.18 0.8 213.78 0.8ZM234.18-1.2L234.18-1.2 232.98-8.75Q234.83-13.55 236.75-17.07 238.68-20.6 240.68-22.55 242.68-24.5 244.73-24.5L244.73-24.5Q245.88-24.5 246.38-23.78 246.88-23.05 246.88-21.95L246.88-21.95Q246.88-20.95 246.65-20.03 246.43-19.1 246-18.5 245.58-17.9 244.98-17.9L244.98-17.9Q244.43-17.9 243.75-18.25 243.08-18.6 241.93-18.6L241.93-18.6Q241.18-18.6 240.03-17.05 238.88-15.5 237.65-12.93 236.43-10.35 235.48-7.28 234.53-4.2 234.18-1.2ZM229.98 0.7L229.98 0.7Q229.33 0.7 229 0.48 228.68 0.25 228.65-0.7 228.63-1.65 228.88-3.75L228.88-3.75 231.23-24.55 234.73-24.55Q235.48-24.55 236.08-23.45 236.68-22.35 236.68-20.95L236.68-20.95Q236.68-20.3 236.3-18.93 235.93-17.55 235.43-16.03 234.93-14.5 234.53-13.35L234.53-13.35 233.23-9.25 235.08-9.55 234.18-1.2Q234.13-0.7 233.58-0.33 233.03 0.05 232.3 0.28 231.58 0.5 230.93 0.6 230.28 0.7 229.98 0.7Z" opacity="1" transform="matrix(1,0,0,1,0,0)" fill="#162836" class="wordmark-text-0" data-fill-palette-color="quaternary" id="text-0"></path></svg></g></svg></g></svg></g></svg></g><g></g></svg></g><defs></defs></svg><rect width="395.52" height="93.77644414657402" fill="none" stroke="none" visibility="hidden"></rect></g></svg></g></svg>